<svg width="256" height="256" viewBox="0 0 256 256" fill="none" xmlns="http://www.w3.org/2000/svg">
<g clip-path="url(#clip0_409_28)">
<path d="M196 0H60C26.8629 0 0 26.8629 0 60V196C0 229.137 26.8629 256 60 256H196C229.137 256 256 229.137 256 196V60C256 26.8629 229.137 0 196 0Z" fill="#F4F2ED"/>
<path d="M224.233 119.092L136.914 31.7733C135.719 30.577 134.299 29.6281 132.737 28.9807C131.174 28.3332 129.499 28 127.808 28C126.117 28 124.442 28.3332 122.879 28.9807C121.317 29.6281 119.897 30.577 118.702 31.7733L100.577 49.8983L123.577 72.8983C128.927 71.0233 135.052 72.3045 139.314 76.567C141.343 78.5997 142.76 81.1621 143.402 83.9615C144.044 86.7609 143.886 89.6845 142.945 92.3983L165.114 114.567C170.477 112.717 176.664 113.91 180.945 118.204C182.369 119.628 183.498 121.318 184.268 123.178C185.038 125.038 185.434 127.031 185.434 129.044C185.433 131.057 185.037 133.05 184.266 134.91C183.495 136.769 182.366 138.459 180.942 139.882C179.519 141.306 177.829 142.434 175.969 143.204C174.109 143.975 172.116 144.371 170.103 144.37C168.09 144.37 166.096 143.973 164.237 143.203C162.377 142.432 160.687 141.303 159.264 139.879C154.764 135.379 153.652 128.754 155.927 123.21L135.252 102.535V156.942C136.753 157.684 138.124 158.664 139.314 159.842C140.737 161.265 141.866 162.954 142.637 164.814C143.407 166.673 143.803 168.666 143.803 170.679C143.803 172.692 143.407 174.685 142.637 176.544C141.866 178.404 140.737 180.094 139.314 181.517C137.891 182.94 136.201 184.069 134.342 184.839C132.482 185.609 130.489 186.006 128.477 186.006C126.464 186.006 124.471 185.609 122.612 184.839C120.752 184.069 119.062 182.94 117.639 181.517C116.214 180.094 115.084 178.405 114.313 176.546C113.541 174.686 113.144 172.692 113.144 170.679C113.144 168.666 113.541 166.673 114.313 164.813C115.084 162.953 116.214 161.264 117.639 159.842C119.12 158.367 120.764 157.248 122.658 156.498V101.585C120.833 100.835 119.12 99.7295 117.639 98.242C115.487 96.0926 114.024 93.3509 113.436 90.3667C112.849 87.3824 113.163 84.2907 114.339 81.4858L91.6513 58.8108L31.7763 118.623C30.5792 119.819 29.6295 121.239 28.9815 122.802C28.3335 124.365 28 126.04 28 127.732C28 129.424 28.3335 131.1 28.9815 132.663C29.6295 134.226 30.5792 135.646 31.7763 136.842L119.102 224.154C120.297 225.35 121.717 226.299 123.279 226.947C124.842 227.594 126.517 227.927 128.208 227.927C129.899 227.927 131.574 227.594 133.137 226.947C134.699 226.299 136.119 225.35 137.314 224.154L224.233 137.373C225.43 136.177 226.38 134.757 227.028 133.194C227.676 131.631 228.009 129.956 228.009 128.264C228.009 126.572 227.676 124.896 227.028 123.333C226.38 121.77 225.43 120.35 224.233 119.154" fill="#F03C2E"/>
</g>
<defs>
<clipPath id="clip0_409_28">
<rect width="256" height="256" fill="white"/>
</clipPath>
</defs>
</svg>
