<svg width="256" height="256" viewBox="0 0 256 256" fill="none" xmlns="http://www.w3.org/2000/svg">
<g clip-path="url(#clip0_409_35)">
<path d="M196 0H60C26.8629 0 0 26.8629 0 60V196C0 229.137 26.8629 256 60 256H196C229.137 256 256 229.137 256 196V60C256 26.8629 229.137 0 196 0Z" fill="#F4F2ED"/>
<path d="M48 38L56.6098 134.593H167.32L163.605 176.023L127.959 185.661L92.38 176.037L90.0012 149.435H57.9389L62.5236 200.716L127.951 218.888L193.461 200.716L202.244 102.655H85.8241L82.901 69.9448H205.041H205.139L208 38H48Z" fill="#EF652A"/>
<path d="M128 38H48L56.6098 134.593H128V102.655H85.8241L82.901 69.9448H128V38Z" fill="#E34F26"/>
<path d="M128.061 186.212L128.02 186.226L92.4412 176.602L90.0624 150H58L62.5848 201.281L128.012 219.453L128.061 219.439V186.212Z" fill="#E34F26"/>
</g>
<defs>
<clipPath id="clip0_409_35">
<rect width="256" height="256" fill="white"/>
</clipPath>
</defs>
</svg>
