<svg width="256" height="256" viewBox="0 0 256 256" fill="none" xmlns="http://www.w3.org/2000/svg">
<g clip-path="url(#clip0_409_28)">
<path d="M196 0H60C26.8629 0 0 26.8629 0 60V196C0 229.137 26.8629 256 60 256H196C229.137 256 256 229.137 256 196V60C256 26.8629 229.137 0 196 0Z" fill="#F4F2ED"/>
<path d="M68.0004 214.779L87.5914 202.923C91.3708 209.624 94.8089 215.294 103.056 215.294C110.961 215.294 115.945 212.202 115.945 200.174V118.376H140.003V200.514C140.003 225.431 125.397 236.773 104.087 236.773C84.842 236.773 73.6706 226.806 68 214.777" fill="#F0DB4F"/>
<path d="M153.07 212.201L172.658 200.86C177.815 209.281 184.517 215.467 196.373 215.467C206.342 215.467 212.698 210.483 212.698 203.609C212.698 195.361 206.168 192.439 195.17 187.629L189.157 185.05C171.8 177.662 160.286 168.382 160.286 148.792C160.286 130.748 174.034 117 195.515 117C210.809 117 221.807 122.328 229.711 136.247L210.98 148.276C206.855 140.887 202.389 137.966 195.515 137.966C188.469 137.966 184.001 142.434 184.001 148.276C184.001 155.493 188.469 158.415 198.779 162.884L204.793 165.461C225.242 174.226 236.756 183.16 236.756 203.265C236.756 224.919 219.744 236.775 196.889 236.775C174.55 236.775 160.115 226.121 153.07 212.201Z" fill="#F0DB4F"/>
</g>
<defs>
<clipPath id="clip0_409_28">
<rect width="256" height="256" fill="white"/>
</clipPath>
</defs>
</svg>
