<svg width="256" height="256" viewBox="0 0 256 256" fill="none" xmlns="http://www.w3.org/2000/svg">
<g clip-path="url(#clip0_407_13)">
<path d="M196 0H60C26.8629 0 0 26.8629 0 60V196C0 229.137 26.8629 256 60 256H196C229.137 256 256 229.137 256 196V60C256 26.8629 229.137 0 196 0Z" fill="#F4F2ED"/>
<path d="M209.06 47C177.532 85.6339 139.028 117.992 97.9665 146.043C84.6179 155.598 69.8817 164.103 59.6192 177.187C55.6996 184.074 54.7537 193.771 61.4551 199.359C72.6155 209.876 89.9991 212.164 103.98 206.276C123.555 198.821 137.074 181.85 148.438 165.027C173.796 128.493 189.175 86.4717 209.06 47Z" fill="#005F0F"/>
<path d="M190.977 60.3589C151.723 91.4614 120.325 108.27 80.1803 122.729C68.0643 127.914 55.0795 134.493 49.4508 147.214C43.6556 159.25 45.555 176.034 52.203 187.178C51.7056 182.486 54.2119 174.907 57.9406 171.349C70.3134 157.57 86.4289 148.542 100.604 138.08L100.638 138.051L100.672 138.028C133.478 115.498 164.235 89.7524 190.977 60.3589Z" fill="#5FB832"/>
</g>
<defs>
<clipPath id="clip0_407_13">
<rect width="256" height="256" fill="white"/>
</clipPath>
</defs>
</svg>
