<svg width="105" height="21" viewBox="0 0 105 21" fill="none" xmlns="http://www.w3.org/2000/svg">
<path d="M10.5 18.5C14.9183 18.5 18.5 14.9183 18.5 10.5C18.5 6.08172 14.9183 2.5 10.5 2.5C6.08172 2.5 2.5 6.08172 2.5 10.5C2.5 14.9183 6.08172 18.5 10.5 18.5Z" fill="#006A5C" stroke="#006A5C" stroke-linecap="round" stroke-linejoin="round"/>
<path d="M31.5 18.5C35.9183 18.5 39.5 14.9183 39.5 10.5C39.5 6.08172 35.9183 2.5 31.5 2.5C27.0817 2.5 23.5 6.08172 23.5 10.5C23.5 14.9183 27.0817 18.5 31.5 18.5Z" fill="#006A5C" stroke="#006A5C" stroke-linecap="round" stroke-linejoin="round"/>
<path d="M94.5 18.5C98.9183 18.5 102.5 14.9183 102.5 10.5C102.5 6.08172 98.9183 2.5 94.5 2.5C90.0817 2.5 86.5 6.08172 86.5 10.5C86.5 14.9183 90.0817 18.5 94.5 18.5Z" stroke="#006A5C" stroke-linecap="round" stroke-linejoin="round"/>
<path d="M52.5 18.5C56.9183 18.5 60.5 14.9183 60.5 10.5C60.5 6.08172 56.9183 2.5 52.5 2.5C48.0817 2.5 44.5 6.08172 44.5 10.5C44.5 14.9183 48.0817 18.5 52.5 18.5Z" stroke="#006A5C" stroke-linecap="round" stroke-linejoin="round"/>
<path d="M73.5 18.5C77.9183 18.5 81.5 14.9183 81.5 10.5C81.5 6.08172 77.9183 2.5 73.5 2.5C69.0817 2.5 65.5 6.08172 65.5 10.5C65.5 14.9183 69.0817 18.5 73.5 18.5Z" stroke="#006A5C" stroke-linecap="round" stroke-linejoin="round"/>
</svg>
